<?xml version="1.0" encoding="UTF-8"?>
<svg id="Ebene_4" data-name="Ebene 4" xmlns="http://www.w3.org/2000/svg" viewBox="0 0 975.83 197.79">
  <defs>
    <style>
      .cls-1 {
        fill: #fff;
        stroke-width: 0px;
      }
    </style>
  </defs>
  <polygon class="cls-1" points="47.06 193.56 71.89 193.56 71.89 24.83 119.07 24.83 119.07 0 0 0 0 24.94 47.06 24.94 47.06 193.56"/>
  <path class="cls-1" d="m359.5,108.42v85.14h-24.83v-85.14c0-13.55-10.98-24.53-24.53-24.53s-24.53,10.98-24.53,24.53v85.14h-24.83v-85.14c0-13.55-10.98-24.53-24.53-24.53s-24.53,10.98-24.53,24.53v85.14h-24.83v-85.14c0-18.33,9.98-34.32,24.83-42.8,7.22-4.18,15.6-6.55,24.53-6.55s17.31,2.38,24.53,6.55c4.7,2.65,8.88,6.08,12.42,10.12,3.54-4.04,7.71-7.47,12.42-10.12,7.22-4.18,15.6-6.55,24.53-6.55s17.31,2.38,24.53,6.55c14.85,8.49,24.83,24.47,24.83,42.8h0Z"/>
  <path class="cls-1" d="m816.03,115.89v77.67h-24.83v-77.67c0-17.67-14.35-31.99-32.02-31.99s-31.99,14.32-31.99,31.99v77.67h-24.83v-77.67c0-19.52,9.84-36.75,24.83-46.95,9.1-6.22,20.1-9.87,31.99-9.87s22.9,3.65,32.02,9.87c14.99,10.2,24.83,27.43,24.83,46.95Z"/>
  <path class="cls-1" d="m630.16,168.73v24.83h-31.99c-.75,0-1.49-.03-2.21-.06-.66,0-1.3-.06-1.96-.11-.17,0-.33,0-.5-.03-.64-.06-1.27-.11-1.91-.19-.72-.08-1.44-.17-2.16-.28-.86-.14-1.71-.28-2.54-.44-.55-.14-1.11-.25-1.66-.39-.5-.11-.94-.22-1.41-.33-.5-.14-.97-.28-1.47-.41-2.24-.64-4.42-1.41-6.53-2.32-.53-.22-1.05-.47-1.55-.69-1.05-.5-2.07-1-3.07-1.55-.97-.53-1.94-1.08-2.88-1.66-.17-.08-.3-.19-.44-.28-.77-.47-1.52-.97-2.24-1.49-.83-.58-1.66-1.19-2.46-1.83-.58-.44-1.16-.91-1.74-1.41-.3-.25-.61-.53-.91-.77-.55-.47-1.05-.97-1.58-1.49-.61-.55-1.22-1.13-1.77-1.74-.64-.64-1.24-1.3-1.83-1.99-.75-.86-1.47-1.71-2.16-2.63-.69-.88-1.35-1.8-1.99-2.74-.77-1.13-1.52-2.32-2.21-3.51-1.02-1.8-1.99-3.65-2.85-5.56-1.11-2.54-2.05-5.2-2.82-7.94-1.33-4.78-2.02-9.79-2.02-14.99V0h24.83v136.74c0,.55.03,1.11.06,1.63.08,1.63.3,3.24.61,4.78.11.53.25,1.05.36,1.58.17.64.33,1.27.55,1.91.39,1.24.86,2.43,1.41,3.59.28.58.58,1.16.88,1.74.53.91,1.05,1.8,1.6,2.65,1.16,1.71,2.49,3.29,3.93,4.73,5.78,5.78,13.77,9.37,22.62,9.37h31.99,0Z"/>
  <path class="cls-1" d="m519.3,132.67c-2.18,36.33-32.32,65.12-69.24,65.12s-69.35-31.05-69.35-69.35,31.05-69.38,69.35-69.38c20.71,0,39.29,9.07,51.99,23.45,2.96,3.32,5.59,6.94,7.85,10.81,1.96,3.32,3.65,6.83,5.03,10.48l-22.12,11.78-10.09,5.39-52.07,27.76c-5.36-5.09-8.71-12.31-8.71-20.32,0-1.11.06-2.21.19-3.29l57.13-30.44c-7.83-6.8-18.03-10.89-29.2-10.89-24.64,0-44.63,19.99-44.63,44.66s19.99,44.63,44.63,44.63c23.23,0,42.33-17.75,44.46-40.4h24.78Z"/>
  <path class="cls-1" d="m975.83,132.67c-2.18,36.33-32.32,65.12-69.24,65.12s-69.35-31.05-69.35-69.35,31.05-69.38,69.35-69.38c20.71,0,39.29,9.07,51.99,23.45,2.96,3.32,5.59,6.94,7.85,10.81,1.96,3.32,3.65,6.83,5.03,10.48l-22.12,11.78-10.09,5.39-52.07,27.76c-5.36-5.09-8.71-12.31-8.71-20.32,0-1.11.06-2.21.19-3.29l57.13-30.44c-7.83-6.8-18.03-10.89-29.2-10.89-24.64,0-44.63,19.99-44.63,44.66s19.99,44.63,44.63,44.63c23.23,0,42.33-17.75,44.46-40.4h24.78Z"/>
  <g>
    <polygon class="cls-1" points="161.98 59.06 161.98 193.56 137.15 193.56 137.15 59.17 161.98 59.06"/>
    <path class="cls-1" d="m149.55,0h0c7.98,0,14.45,6.47,14.45,14.45h0c0,7.98-6.47,14.45-14.45,14.45h0c-7.98,0-14.45-6.47-14.45-14.45h0C135.11,6.47,141.57,0,149.55,0Z"/>
  </g>
  <g>
    <polygon class="cls-1" points="675.75 59.06 675.75 193.56 650.92 193.56 650.92 59.17 675.75 59.06"/>
    <path class="cls-1" d="m663.35,0h0c7.98,0,14.45,6.47,14.45,14.45h0c0,7.98-6.47,14.45-14.45,14.45h0c-7.98,0-14.45-6.47-14.45-14.45h0C648.9,6.47,655.37,0,663.35,0Z"/>
  </g>
</svg>